<svg xmlns="http://www.w3.org/2000/svg" width="128" height="128" viewBox="0 0 128 128" role="img" aria-label="Skip Intro">
  <defs>
    <linearGradient id="bg" x1="0" y1="0" x2="1" y2="1">
      <stop offset="0%" stop-color="#0f172a"/>
      <stop offset="100%" stop-color="#1e3a8a"/>
    </linearGradient>
  </defs>
  <rect x="8" y="8" width="112" height="112" rx="24" fill="url(#bg)"/>
  <circle cx="64" cy="64" r="39" fill="#111827" opacity="0.35"/>
  <path d="M50 41h20v8H53c-5 0-8 2-8 6 0 4 2 6 8 7l8 1c11 2 17 8 17 18 0 12-9 19-24 19H34v-8h20c7 0 12-3 12-9 0-5-3-8-10-9l-8-1c-10-2-15-7-15-16 0-10 7-17 17-17z" fill="#f8fafc"/>
  <path d="M76 48l18 12-18 12V48z" fill="#38bdf8"/>
</svg>
